<?xml version="1.0" encoding="utf-8"?>
<!-- Generator: Adobe Illustrator 24.2.1, SVG Export Plug-In . SVG Version: 6.00 Build 0)  -->
<svg version="1.1" id="Camada_1" xmlns="http://www.w3.org/2000/svg" xmlns:xlink="http://www.w3.org/1999/xlink" x="0px" y="0px"
	 viewBox="0 0 284 86" style="enable-background:new 0 0 284 86;" xml:space="preserve">
<style type="text/css">
	.st0{fill:url(#SVGID_1_);}
	.st1{fill:#F25221;}
	.st2{fill:url(#SVGID_2_);}
	.st3{fill:#FFFFFF;}
	.st4{fill:url(#SVGID_3_);}
	.st5{fill:url(#SVGID_4_);}
	.st6{fill:url(#SVGID_5_);}
	.st7{fill:url(#SVGID_6_);}
	.st8{fill:url(#SVGID_7_);}
	.st9{fill:url(#SVGID_8_);}
	.st10{fill:url(#SVGID_9_);}
</style>
<g>
	
		<linearGradient id="SVGID_1_" gradientUnits="userSpaceOnUse" x1="255.5213" y1="36.7804" x2="251.4478" y2="39.3713" gradientTransform="matrix(1 0 0 -1 0 87.2756)">
		<stop  offset="0" style="stop-color:#F25221"/>
		<stop  offset="1" style="stop-color:#9F3410"/>
	</linearGradient>
	<path class="st0" d="M255.9,52.1l-6.1-3.3v-3.3l6.1,3.3V52.1z"/>
	<path class="st1" d="M255.9,42.3l-6.1,3.3v3.3l6.1-3.3V42.3z"/>
	
		<linearGradient id="SVGID_2_" gradientUnits="userSpaceOnUse" x1="257.7869" y1="43.4587" x2="261.8603" y2="40.8678" gradientTransform="matrix(1 0 0 -1 0 87.2756)">
		<stop  offset="0" style="stop-color:#F25221"/>
		<stop  offset="1" style="stop-color:#9F3410"/>
	</linearGradient>
	<path class="st2" d="M257.4,42.3l6.1,3.3v3.3l-6.1-3.3V42.3z"/>
	<path class="st1" d="M257.4,52.1l6.1-3.3v-3.3l-6.1,3.3V52.1z"/>
	<g>
		<g>
			<path class="st3" d="M33.8,26.9c0,4.8-1.8,7.4-5.2,9c4.5,1.8,7.2,5,7.2,10.6c0,8.2-6.3,12.9-15.2,12.9H7.1V15.7h13.4
				C29.4,15.7,33.8,19.6,33.8,26.9z M11.9,33.6h8.7c5.4,0,8.5-2.1,8.5-6.7c0-4.5-3-6.4-8.5-6.4h-8.7V33.6z M11.9,54.7H22
				c5.1,0,8.9-3.7,8.9-8.2s-3.8-8.2-8.9-8.2H11.9V54.7z"/>
			<path class="st3" d="M20.5,59.8H6.7V15.3h13.8c8.9,0,13.7,4,13.7,11.6c0,4.4-1.5,7.2-4.7,9c4.5,2.1,6.7,5.6,6.7,10.6
				C36.1,54.6,30,59.8,20.5,59.8z M7.5,59.1h13c9,0,14.9-4.9,14.9-12.6c0-5.1-2.2-8.3-7-10.3l-0.8-0.3l0.8-0.4c3.5-1.6,5-4.3,5-8.7
				c0-7.2-4.3-10.8-12.9-10.8h-13V59.1z M22,55.1H11.5V38H22c5.2,0,9.3,3.7,9.3,8.5S27.2,55.1,22,55.1z M12.2,54.3H22
				c4.8,0,8.5-3.4,8.5-7.8s-3.7-7.8-8.5-7.8h-9.8V54.3z M20.5,34h-9V20.1h9c5.9,0,8.8,2.3,8.8,6.8C29.4,31.5,26.3,34,20.5,34z
				 M12.2,33.2h8.3c5.4,0,8.1-2.1,8.1-6.3c0-4.1-2.6-6-8.1-6h-8.3V33.2z"/>
		</g>
		<g>
			<path class="st3" d="M64.3,35.7l4.4-1.5v25.2h-4.4v-4.6c-1.5,3-5.5,5.5-9.5,5.5c-8,0-12.6-5.7-12.6-12.9c0-7.3,4.7-13.6,13-13.6
				c4,0,7.7,2.6,9.1,5.6V35.7z M64.3,47.2c0-5.4-3.7-9.3-8.8-9.3c-5.1,0-8.8,3.8-8.8,9.3c0,5.3,3.7,9.2,8.8,9.2
				C60.6,56.4,64.3,52.5,64.3,47.2z"/>
			<path class="st3" d="M54.8,60.8c-7.8,0-13-5.3-13-13.3c0-8.2,5.5-14,13.3-14c3.4,0,6.9,1.9,8.8,4.6v-2.7l5.1-1.7v26.1h-5.1v-3.6
				C62,58.9,58.3,60.8,54.8,60.8z M55.1,34.3c-8.7,0-12.6,6.9-12.6,13.2C42.5,55,47.5,60,54.8,60c3.7,0,7.7-2.3,9.2-5.3l0.7-1.4v5.8
				h3.7V34.7l-3.7,1.2v5.2L64,39.7C62.5,36.5,58.7,34.3,55.1,34.3z M55.4,56.8c-5.3,0-9.1-4-9.1-9.6c0-5.6,3.8-9.6,9.1-9.6
				c5.3,0,9.2,4.1,9.2,9.6C64.7,52.7,60.8,56.8,55.4,56.8z M55.4,38.3c-4.9,0-8.4,3.7-8.4,8.9c0,5.1,3.5,8.8,8.4,8.8
				c4.9,0,8.5-3.7,8.5-8.8C63.9,42,60.4,38.3,55.4,38.3z"/>
		</g>
		<g>
			<path class="st3" d="M79.2,37.7h-5.1l1.5-3.8h3.6v-8l4.4-1.5v9.5h6v3.8h-6v14.4c0,2.3,1.5,4.1,5.2,4.1v4.1
				c-8.4,0-9.6-5.4-9.6-8.2V37.7z"/>
			<path class="st3" d="M89.2,60.8h-0.4c-9,0-9.9-6-9.9-8.6V38.1h-5.2l1.7-4.6h3.5v-7.9l5.1-1.7v9.7h6v4.6h-6v14.1
				c0,2.4,1.8,3.8,4.8,3.8h0.4V60.8z M74.7,37.4h4.9v14.8c0,2.9,1.2,7.7,8.8,7.9v-3.4c-3.3-0.1-5.2-1.8-5.2-4.5V37.4h6v-3.1h-6v-9.4
				l-3.7,1.2v8.1h-3.7L74.7,37.4z"/>
		</g>
		<g>
			<path class="st3" d="M118.2,53.5v4.1c-2.4,1.5-5.1,2.8-9.6,2.8c-7.7,0-14.2-4.8-14.2-12.7c0-8.7,6.1-13.8,12.9-13.8
				c7.6,0,12.9,5.2,12.7,15.2H99c0.7,4.4,4.1,7.3,9.7,7.3C113.5,56.5,115.8,55,118.2,53.5z M99,45.2h16.3c0-3-2.6-7.3-8-7.3
				C103.3,38,99.8,40.3,99,45.2z"/>
			<path class="st3" d="M108.7,60.8c-8.4,0-14.6-5.5-14.6-13c0-9.3,6.7-14.2,13.2-14.2c3.7,0,6.9,1.2,9.2,3.5
				c2.7,2.7,4,6.9,3.9,12.1l0,0.4h-21c0.8,4.2,4.2,6.6,9.3,6.6c4.6,0,6.8-1.3,9.1-2.7l0.8-0.5v4.9l-0.2,0.1
				C116,59.4,113.3,60.8,108.7,60.8z M107.3,34.3c-6.2,0-12.5,4.6-12.5,13.5c0,7.2,5.7,12.3,13.8,12.3c4.3,0,6.9-1.3,9.2-2.6v-3.2
				c-2.2,1.3-4.6,2.6-9.2,2.6c-5.6,0-9.3-2.9-10.1-7.6l-0.1-0.4h21.2c0-4.8-1.3-8.7-3.7-11.2C113.8,35.4,110.8,34.3,107.3,34.3z
				 M115.7,45.6H98.6l0.1-0.4c0.8-4.7,4-7.6,8.7-7.6c5.7,0,8.4,4.5,8.4,7.6V45.6z M99.5,44.9H115c-0.2-2.8-2.7-6.5-7.7-6.5
				C103.2,38.4,100.3,40.8,99.5,44.9z"/>
		</g>
		<g>
			<path class="st3" d="M155.8,29.3c0,9-5.7,13.4-15.8,13.4h-6.8v16.7h-4.8V15.9h11.6C149.9,15.9,155.8,20.6,155.8,29.3z
				 M133.1,38.4h6.8c7.1,0,11-3.2,11-9.1c0-5.9-3.9-9.1-11-9.1h-6.8V38.4z"/>
			<path class="st3" d="M133.5,59.8h-5.5V15.6h12c10.3,0,16.2,5,16.2,13.8c0,9-5.6,13.8-16.2,13.8h-6.5V59.8z M128.6,59.1h4.1V42.4
				h7.2c10.1,0,15.5-4.5,15.5-13c0-8.4-5.5-13-15.5-13h-11.3V59.1z M139.9,38.8h-7.2V19.9h7.2c7.3,0,11.3,3.4,11.3,9.4
				C151.3,35.4,147.2,38.8,139.9,38.8z M133.5,38h6.5c6.9,0,10.6-3,10.6-8.7c0-5.6-3.8-8.7-10.6-8.7h-6.5V38z"/>
		</g>
		<g>
			<path class="st3" d="M160.6,47.2c0-7.3,6.2-13.3,13.5-13.3c7.3,0,13.5,6,13.5,13.3c0,7.3-6.2,13.2-13.5,13.2
				C166.9,60.4,160.6,54.4,160.6,47.2z M183.1,47.2c0-5.2-3.8-9.3-9-9.3c-5.2,0-9,4.1-9,9.3c0,5.1,3.8,9.2,9,9.2
				C179.3,56.4,183.1,52.3,183.1,47.2z"/>
			<path class="st3" d="M174.1,60.8c-7.5,0-13.8-6.2-13.8-13.6c0-7.4,6.3-13.7,13.8-13.7S188,39.8,188,47.2
				C188,54.6,181.6,60.8,174.1,60.8z M174.1,34.3c-7.1,0-13.1,5.9-13.1,12.9c0,7,6,12.9,13.1,12.9s13.1-5.9,13.1-12.9
				C187.2,40.2,181.2,34.3,174.1,34.3z M174.1,56.8c-5.3,0-9.4-4.2-9.4-9.6c0-5.5,4-9.6,9.4-9.6c5.3,0,9.3,4.1,9.3,9.6
				C183.4,52.6,179.4,56.8,174.1,56.8z M174.1,38.3c-4.9,0-8.7,3.8-8.7,8.9c0,5,3.7,8.8,8.7,8.8c4.9,0,8.6-3.8,8.6-8.8
				C182.7,42.1,179,38.3,174.1,38.3z"/>
		</g>
		<g>
			<path class="st3" d="M207.6,33.9c5.8,0,9.8,4.6,9.8,9.8v15.8H213V44.3c0-3.7-2.7-6.6-7.2-6.6c-3.6,0-7.1,2.7-7.1,6.6v15.2h-4.4
				V35.6l4.4-1.5v4.5C200.1,36.3,203.5,33.9,207.6,33.9z"/>
			<path class="st3" d="M217.8,59.8h-5.1V44.3c0-3.7-2.7-6.2-6.8-6.2c-3.3,0-6.8,2.5-6.8,6.2v15.5h-5.1V35.3l5.1-1.7v3.9
				c1.7-2.1,4.8-4,8.5-4c5.7,0,10.2,4.4,10.2,10.1V59.8z M213.4,59.1h3.7V43.7c0-5.3-4.1-9.4-9.4-9.4c-4,0-7.3,2.4-8.6,4.6l-0.7,1.2
				v-5.3l-3.7,1.2v23.2h3.7V44.3c0-4.2,3.9-6.9,7.5-6.9c4.5,0,7.6,2.9,7.6,6.9V59.1z"/>
		</g>
		<g>
			<path class="st3" d="M227.9,37.7h-5.1l1.5-3.8h3.6v-8l4.4-1.5v9.5h6v3.8h-6v14.4c0,2.3,1.5,4.1,5.2,4.1v4.1
				c-8.4,0-9.6-5.4-9.6-8.2V37.7z"/>
			<path class="st3" d="M237.9,60.8h-0.4c-9,0-9.9-6-9.9-8.6V38.1h-5.2l1.7-4.6h3.5v-7.9l5.1-1.7v9.7h6v4.6h-6v14.1
				c0,2.4,1.8,3.8,4.8,3.8h0.4V60.8z M223.4,37.4h4.9v14.8c0,2.9,1.2,7.7,8.8,7.9v-3.4c-3.3-0.1-5.2-1.8-5.2-4.5V37.4h6v-3.1h-6
				v-9.4l-3.7,1.2v8.1h-3.7L223.4,37.4z"/>
		</g>
		<g>
			<path class="st3" d="M243.2,47.2c0-7.3,6.2-13.3,13.5-13.3c7.3,0,13.5,6,13.5,13.3c0,7.3-6.2,13.2-13.5,13.2
				C249.4,60.4,243.2,54.4,243.2,47.2z M265.6,47.2c0-5.2-3.8-9.3-9-9.3c-5.2,0-9,4.1-9,9.3c0,5.1,3.8,9.2,9,9.2
				C261.8,56.4,265.6,52.3,265.6,47.2z"/>
			<path class="st3" d="M256.6,60.8c-7.5,0-13.8-6.2-13.8-13.6c0-7.4,6.3-13.7,13.8-13.7c7.5,0,13.8,6.3,13.8,13.7
				C270.5,54.6,264.1,60.8,256.6,60.8z M256.6,34.3c-7.1,0-13.1,5.9-13.1,12.9c0,7,6,12.9,13.1,12.9c7.1,0,13.1-5.9,13.1-12.9
				C269.7,40.2,263.7,34.3,256.6,34.3z M256.6,56.8c-5.3,0-9.4-4.2-9.4-9.6c0-5.5,4-9.6,9.4-9.6c5.3,0,9.3,4.1,9.3,9.6
				C266,52.6,262,56.8,256.6,56.8z M256.6,38.3c-4.9,0-8.7,3.8-8.7,8.9c0,5,3.7,8.8,8.7,8.8c4.9,0,8.6-3.8,8.6-8.8
				C265.2,42.1,261.5,38.3,256.6,38.3z"/>
		</g>
	</g>
	<g>
		<path class="st3" d="M88.7,69.4c0-1.8,1.5-3.2,3.2-3.2c1.7,0,3.2,1.4,3.2,3.2c0,1.7-1.5,3.2-3.2,3.2
			C90.2,72.5,88.7,71.1,88.7,69.4z M94,69.4c0-1.2-0.9-2.2-2.1-2.2c-1.2,0-2.2,1-2.2,2.2c0,1.2,0.9,2.2,2.2,2.2
			C93.1,71.6,94,70.6,94,69.4z"/>
		<path class="st3" d="M100,71.7v-1c0.5,0.5,1.4,1,2.1,1c0.6,0,1.4-0.2,1.4-1c0-0.6-0.7-0.7-1.5-0.9c-0.7-0.2-2.1-0.5-2.1-1.8
			c0-1.5,1.4-1.8,2.2-1.8c0.8,0,1.6,0.2,1.9,0.6v0.9c-0.3-0.3-1.3-0.6-1.9-0.6c-0.6,0-1.2,0.3-1.2,0.9c0,0.5,0.6,0.7,1.4,0.9
			c0.8,0.2,2.2,0.6,2.2,1.8c0,1.3-1,1.9-2.5,1.9C101.3,72.5,100.5,72.2,100,71.7z"/>
		<path class="st3" d="M106.2,63.8l1.2-0.4v1.3l-1.2,0.4V63.8z M106.3,66.6l1.1-0.4v6.1h-1.1V66.6z"/>
		<path class="st3" d="M109,71.7v-1c0.5,0.5,1.4,1,2.1,1c0.6,0,1.4-0.2,1.4-1c0-0.6-0.7-0.7-1.5-0.9c-0.7-0.2-2.1-0.5-2.1-1.8
			c0-1.5,1.4-1.8,2.2-1.8c0.8,0,1.6,0.2,1.9,0.6v0.9c-0.3-0.3-1.3-0.6-1.9-0.6c-0.6,0-1.2,0.3-1.2,0.9c0,0.5,0.6,0.7,1.4,0.9
			c0.8,0.2,2.2,0.6,2.2,1.8c0,1.3-1,1.9-2.5,1.9C110.4,72.5,109.6,72.2,109,71.7z"/>
		<path class="st3" d="M115.7,67.1h-1.2l0.4-0.9h0.9v-1.9l1.1-0.4v2.3h1.4v0.9h-1.4v3.5c0,0.5,0.4,1,1.2,1v1c-2,0-2.3-1.3-2.3-2
			V67.1z"/>
		<path class="st3" d="M125.1,70.9v1c-0.6,0.4-1.2,0.7-2.3,0.7c-1.8,0-3.4-1.1-3.4-3c0-2.1,1.5-3.3,3.1-3.3c1.8,0,3.1,1.2,3.1,3.7
			h-5.1c0.2,1.1,1,1.8,2.3,1.8C124,71.6,124.5,71.2,125.1,70.9z M120.5,68.9h3.9c0-0.7-0.6-1.7-1.9-1.7
			C121.5,67.2,120.7,67.7,120.5,68.9z"/>
		<path class="st3" d="M130.1,66.2c0.7,0,1.4,0.5,1.8,1.2c0.4-0.6,0.8-1.2,2.2-1.2c1.1,0,2,1.1,2,2.3v3.8h-1v-3.6
			c0-0.9-0.4-1.6-1.3-1.6c-1,0-1.6,0.7-1.6,1.4v3.8h-1.1v-3.6c0-0.9-0.4-1.6-1.3-1.6c-0.9,0-1.7,0.7-1.7,1.6v3.6h-1.1v-5.7l1.1-0.4
			v1.1C128.4,66.7,129.1,66.2,130.1,66.2z"/>
		<path class="st3" d="M143,66.6l1.1-0.4v6.1H143v-1.1c-0.4,0.7-1.3,1.3-2.3,1.3c-1.9,0-3-1.4-3-3.1c0-1.8,1.1-3.3,3.1-3.3
			c0.9,0,1.8,0.6,2.2,1.3V66.6z M143,69.4c0-1.3-0.9-2.2-2.1-2.2c-1.2,0-2.1,0.9-2.1,2.2c0,1.3,0.9,2.2,2.1,2.2
			C142.1,71.6,143,70.6,143,69.4z"/>
		<path class="st3" d="M154.6,66.6l1.1-0.4v6.1c0,1.8-1.3,2.8-3.2,2.8c-1.5,0-2.3-0.7-2.6-0.9v-1.1c0.3,0.3,1.3,1.1,2.6,1.1
			c0.8,0,2.1-0.1,2.1-1.9v-1.1c-0.4,0.7-1.3,1.3-2.3,1.3c-1.9,0-3-1.4-3-3.1c0-1.8,1.1-3.3,3.1-3.3c0.9,0,1.8,0.6,2.2,1.3V66.6z
			 M154.6,69.4c0-1.3-0.9-2.2-2.1-2.2c-1.2,0-2.1,0.9-2.1,2.2c0,1.3,0.9,2.2,2.1,2.2C153.7,71.6,154.6,70.6,154.6,69.4z"/>
		<path class="st3" d="M162.9,70.9v1c-0.6,0.4-1.2,0.7-2.3,0.7c-1.8,0-3.4-1.1-3.4-3c0-2.1,1.5-3.3,3.1-3.3c1.8,0,3.1,1.2,3.1,3.7
			h-5.1c0.2,1.1,1,1.8,2.3,1.8C161.8,71.6,162.3,71.2,162.9,70.9z M158.3,68.9h3.9c0-0.7-0.6-1.7-1.9-1.7
			C159.3,67.2,158.5,67.7,158.3,68.9z"/>
		<path class="st3" d="M168.3,66.3v1.1c-0.9,0-2.3,0.4-2.3,1.5v3.4h-1.1v-5.7l1.1-0.4v1.3C166.3,67,167.3,66.3,168.3,66.3z"/>
		<path class="st3" d="M175.1,70.9v1c-0.6,0.4-1.2,0.7-2.3,0.7c-1.8,0-3.4-1.1-3.4-3c0-2.1,1.5-3.3,3.1-3.3c1.8,0,3.1,1.2,3.1,3.7
			h-5.1c0.2,1.1,1,1.8,2.3,1.8C174,71.6,174.5,71.2,175.1,70.9z M170.5,68.9h3.9c0-0.7-0.6-1.7-1.9-1.7
			C171.5,67.2,170.7,67.7,170.5,68.9z"/>
		<path class="st3" d="M180.3,66.2c1.4,0,2.4,1.1,2.4,2.3v3.8h-1.1v-3.6c0-0.9-0.6-1.6-1.7-1.6c-0.9,0-1.7,0.7-1.7,1.6v3.6h-1.1
			v-5.7l1.1-0.4v1.1C178.5,66.7,179.3,66.2,180.3,66.2z"/>
		<path class="st3" d="M189.2,71v1c-0.6,0.4-1.2,0.5-1.7,0.5c-1.7,0-3.2-1.4-3.2-3.2c0-1.8,1.5-3.2,3.2-3.2c0.5,0,1.1,0.1,1.7,0.5
			v1.1c0,0-0.6-0.6-1.7-0.6c-1.2,0-2.2,1-2.2,2.2c0,1.2,0.9,2.2,2.2,2.2C188.6,71.6,189.2,71,189.2,71z"/>
		<path class="st3" d="M190.8,63.8l1.2-0.4v1.3l-1.2,0.4V63.8z M190.9,66.6l1.1-0.4v6.1h-1.1V66.6z"/>
		<path class="st3" d="M198.9,66.6l1.1-0.4v6.1h-1.1v-1.1c-0.4,0.7-1.3,1.3-2.3,1.3c-1.9,0-3-1.4-3-3.1c0-1.8,1.1-3.3,3.1-3.3
			c0.9,0,1.8,0.6,2.2,1.3V66.6z M198.9,69.4c0-1.3-0.9-2.2-2.1-2.2c-1.2,0-2.1,0.9-2.1,2.2c0,1.3,0.9,2.2,2.1,2.2
			C198,71.6,198.9,70.6,198.9,69.4z"/>
		<path class="st3" d="M202,61.6l1.1-0.4v11H202V61.6z"/>
		<path class="st3" d="M213.6,61.6l1.1-0.4v11h-1.1v-1.1c-0.4,0.7-1.3,1.3-2.3,1.3c-1.9,0-3-1.4-3-3.1c0-1.8,1.1-3.3,3.1-3.3
			c0.9,0,1.8,0.6,2.2,1.3V61.6z M213.6,69.3c0-1.3-0.9-2.2-2.1-2.2c-1.2,0-2.1,0.9-2.1,2.2c0,1.3,0.9,2.2,2.1,2.2
			C212.7,71.6,213.6,70.6,213.6,69.3z"/>
		<path class="st3" d="M221.6,66.6l1.1-0.4v6.1h-1.1v-1.1c-0.4,0.7-1.3,1.3-2.3,1.3c-1.9,0-3-1.4-3-3.1c0-1.8,1.1-3.3,3.1-3.3
			c0.9,0,1.8,0.6,2.2,1.3V66.6z M221.6,69.4c0-1.3-0.9-2.2-2.1-2.2c-1.2,0-2.1,0.9-2.1,2.2c0,1.3,0.9,2.2,2.1,2.2
			C220.7,71.6,221.6,70.6,221.6,69.4z"/>
		<linearGradient id="SVGID_3_" gradientUnits="userSpaceOnUse" x1="226.6288" y1="69.486" x2="231.4511" y2="66.4188">
			<stop  offset="0" style="stop-color:#F25221"/>
			<stop  offset="1" style="stop-color:#9F3410"/>
		</linearGradient>
		<path class="st4" d="M228.3,63.8l1.2-0.4v1.3l-1.2,0.4V63.8z M228.4,66.6l1.1-0.4v6.1h-1.1V66.6z"/>
		<linearGradient id="SVGID_4_" gradientUnits="userSpaceOnUse" x1="231.1045" y1="71.5152" x2="237.0751" y2="67.7175">
			<stop  offset="0" style="stop-color:#F25221"/>
			<stop  offset="1" style="stop-color:#9F3410"/>
		</linearGradient>
		<path class="st5" d="M234.8,66.2c1.4,0,2.4,1.1,2.4,2.3v3.8h-1.1v-3.6c0-0.9-0.6-1.6-1.7-1.6c-0.9,0-1.7,0.7-1.7,1.6v3.6h-1.1
			v-5.7l1.1-0.4v1.1C233,66.7,233.8,66.2,234.8,66.2z"/>
		<linearGradient id="SVGID_5_" gradientUnits="userSpaceOnUse" x1="239.2674" y1="71.0676" x2="244.3934" y2="67.8071">
			<stop  offset="0" style="stop-color:#F25221"/>
			<stop  offset="1" style="stop-color:#9F3410"/>
		</linearGradient>
		<path class="st6" d="M243.7,71v1c-0.6,0.4-1.2,0.5-1.7,0.5c-1.7,0-3.2-1.4-3.2-3.2c0-1.8,1.5-3.2,3.2-3.2c0.5,0,1.1,0.1,1.7,0.5
			v1.1c0,0-0.6-0.6-1.7-0.6c-1.2,0-2.2,1-2.2,2.2c0,1.2,0.9,2.2,2.2,2.2C243.1,71.6,243.7,71,243.7,71z"/>
		<linearGradient id="SVGID_6_" gradientUnits="userSpaceOnUse" x1="243.0072" y1="68.7306" x2="248.753" y2="65.0759">
			<stop  offset="0" style="stop-color:#F25221"/>
			<stop  offset="1" style="stop-color:#9F3410"/>
		</linearGradient>
		<path class="st7" d="M245.3,61.6l1.1-0.4v11h-1.1V61.6z"/>
		<linearGradient id="SVGID_7_" gradientUnits="userSpaceOnUse" x1="248.5161" y1="71.1154" x2="254.5625" y2="67.2695">
			<stop  offset="0" style="stop-color:#F25221"/>
			<stop  offset="1" style="stop-color:#9F3410"/>
		</linearGradient>
		<path class="st8" d="M252.9,66.6l1.1-0.4v6.1h-1.1v-0.9c-0.3,0.6-1.2,1.2-2.1,1.2c-1.4,0-2.3-1.1-2.3-2.3v-3.6l1.1-0.4v3.8
			c0,0.9,0.6,1.6,1.7,1.6c0.9,0,1.7-0.7,1.7-1.6V66.6z"/>
		<linearGradient id="SVGID_8_" gradientUnits="userSpaceOnUse" x1="255.6118" y1="70.6019" x2="264.2997" y2="65.0759">
			<stop  offset="0" style="stop-color:#F25221"/>
			<stop  offset="1" style="stop-color:#9F3410"/>
		</linearGradient>
		<path class="st9" d="M260.8,61.6l1.1-0.4v11h-1.1v-1.1c-0.4,0.7-1.3,1.3-2.3,1.3c-1.9,0-3-1.4-3-3.1c0-1.8,1.1-3.3,3.1-3.3
			c0.9,0,1.8,0.6,2.2,1.3V61.6z M260.8,69.3c0-1.3-0.9-2.2-2.1-2.2c-1.2,0-2.1,0.9-2.1,2.2c0,1.3,0.9,2.2,2.1,2.2
			C259.9,71.6,260.8,70.6,260.8,69.3z"/>
		<linearGradient id="SVGID_9_" gradientUnits="userSpaceOnUse" x1="263.9957" y1="71.1924" x2="269.2936" y2="67.8226">
			<stop  offset="0" style="stop-color:#F25221"/>
			<stop  offset="1" style="stop-color:#9F3410"/>
		</linearGradient>
		<path class="st10" d="M269.2,70.9v1c-0.6,0.4-1.2,0.7-2.3,0.7c-1.8,0-3.4-1.1-3.4-3c0-2.1,1.5-3.3,3.1-3.3c1.8,0,3.1,1.2,3.1,3.7
			h-5.1c0.2,1.1,1,1.8,2.3,1.8C268.1,71.6,268.6,71.2,269.2,70.9z M264.6,68.9h3.9c0-0.7-0.6-1.7-1.9-1.7
			C265.6,67.2,264.8,67.7,264.6,68.9z"/>
		<path class="st3" d="M271.1,71.2h1.1v1.1h-1.1V71.2z"/>
	</g>
</g>
</svg>
